<?xml version="1.0" encoding="UTF-8" standalone="no"?>
<!DOCTYPE svg PUBLIC "-//W3C//DTD SVG 1.0//EN" "http://www.w3.org/TR/2001/PR-SVG-20010719/DTD/svg10.dtd">
<svg width="11cm" height="7cm" viewBox="112 45 213 121" xmlns="http://www.w3.org/2000/svg" xmlns:xlink="http://www.w3.org/1999/xlink">
  <text font-size="12.7998" style="fill: #000000;text-anchor:start;font-family:sans-serif;font-style:normal;font-weight:normal" x="220" y="60">
    <tspan x="220" y="60">⊤</tspan>
  </text>
  <text font-size="12.7998" style="fill: #000000;text-anchor:start;font-family:sans-serif;font-style:normal;font-weight:normal" x="120" y="100">
    <tspan x="120" y="100">1</tspan>
  </text>
  <text font-size="12.7998" style="fill: #000000;text-anchor:start;font-family:sans-serif;font-style:normal;font-weight:normal" x="160" y="100">
    <tspan x="160" y="100">2</tspan>
  </text>
  <text font-size="12.7998" style="fill: #000000;text-anchor:start;font-family:sans-serif;font-style:normal;font-weight:normal" x="200" y="100">
    <tspan x="200" y="100">3</tspan>
  </text>
  <text font-size="12.7998" style="fill: #000000;text-anchor:start;font-family:sans-serif;font-style:normal;font-weight:normal" x="240" y="100">
    <tspan x="240" y="100">4</tspan>
  </text>
  <text font-size="12.7998" style="fill: #000000;text-anchor:start;font-family:sans-serif;font-style:normal;font-weight:normal" x="280" y="100">
    <tspan x="280" y="100">...</tspan>
  </text>
  <text font-size="12.7998" style="fill: #000000;text-anchor:start;font-family:sans-serif;font-style:normal;font-weight:normal" x="220" y="160">
    <tspan x="220" y="160">⊥</tspan>
  </text>
  <line style="fill: none; fill-opacity:0; stroke-width: 0.02; stroke: #000000" x1="220" y1="150" x2="120" y2="100"/>
  <line style="fill: none; fill-opacity:0; stroke-width: 0.02; stroke: #000000" x1="222" y1="150" x2="166" y2="101"/>
  <line style="fill: none; fill-opacity:0; stroke-width: 0.02; stroke: #000000" x1="226" y1="150" x2="204" y2="102"/>
  <line style="fill: none; fill-opacity:0; stroke-width: 0.02; stroke: #000000" x1="230" y1="150" x2="245" y2="104"/>
  <line style="fill: none; fill-opacity:0; stroke-width: 0.02; stroke: #000000" x1="122" y1="88" x2="220" y2="60"/>
  <line style="fill: none; fill-opacity:0; stroke-width: 0.02; stroke: #000000" x1="166" y1="87" x2="224" y2="60"/>
  <line style="fill: none; fill-opacity:0; stroke-width: 0.02; stroke: #000000" x1="204" y1="86" x2="226" y2="60"/>
  <line style="fill: none; fill-opacity:0; stroke-width: 0.02; stroke: #000000" x1="244" y1="86" x2="230" y2="60"/>
  <line style="fill: none; fill-opacity:0; stroke-width: 0.02; stroke: #000000" x1="220" y1="160" x2="220" y2="160"/>
  <g>
    <line style="fill: none; fill-opacity:0; stroke-width: 0.02; stroke-dasharray: 4; stroke: #000000" x1="132" y1="112" x2="280" y2="112"/>
    <line style="fill: none; fill-opacity:0; stroke-width: 0.02; stroke: #000000" x1="112" y1="112" x2="116" y2="112"/>
    <line style="fill: none; fill-opacity:0; stroke-width: 0.02; stroke: #000000" x1="118.667" y1="112" x2="122.667" y2="112"/>
    <line style="fill: none; fill-opacity:0; stroke-width: 0.02; stroke: #000000" x1="125.333" y1="112" x2="129.333" y2="112"/>
    <line style="fill: none; fill-opacity:0; stroke-width: 0.02; stroke: #000000" x1="300" y1="112" x2="296" y2="112"/>
    <line style="fill: none; fill-opacity:0; stroke-width: 0.02; stroke: #000000" x1="293.333" y1="112" x2="289.333" y2="112"/>
    <line style="fill: none; fill-opacity:0; stroke-width: 0.02; stroke: #000000" x1="286.667" y1="112" x2="282.667" y2="112"/>
  </g>
  <text font-size="12.7998" style="fill: #000000;text-anchor:start;font-family:sans-serif;font-style:normal;font-weight:normal" x="264" y="108">
    <tspan x="264" y="108">threshold</tspan>
  </text>
</svg>
