<?xml version="1.0" encoding="UTF-8" standalone="no"?>
<!DOCTYPE svg PUBLIC "-//W3C//DTD SVG 1.0//EN" "http://www.w3.org/TR/2001/PR-SVG-20010719/DTD/svg10.dtd">
<svg width="8cm" height="7cm" viewBox="156 58 141 135" xmlns="http://www.w3.org/2000/svg" xmlns:xlink="http://www.w3.org/1999/xlink">
  <text font-size="12.8" style="fill: #000000;text-anchor:start;font-family:sans-serif;font-style:normal;font-weight:normal" x="156" y="150">
    <tspan x="156" y="150">001</tspan>
  </text>
  <text font-size="12.8" style="fill: #000000;text-anchor:start;font-family:sans-serif;font-style:normal;font-weight:normal" x="272" y="150">
    <tspan x="272" y="150">100</tspan>
  </text>
  <text font-size="12.8" style="fill: #000000;text-anchor:start;font-family:sans-serif;font-style:normal;font-weight:normal" x="214" y="190">
    <tspan x="214" y="190">000</tspan>
  </text>
  <line style="fill: none; fill-opacity:0; stroke-width: 0.02; stroke: #000000" x1="220" y1="178" x2="168" y2="152"/>
  <line style="fill: none; fill-opacity:0; stroke-width: 0.02; stroke: #000000" x1="170" y1="98" x2="222" y2="72"/>
  <line style="fill: none; fill-opacity:0; stroke-width: 0.02; stroke: #000000" x1="226" y1="98" x2="226" y2="72"/>
  <line style="fill: none; fill-opacity:0; stroke-width: 0.02; stroke: #000000" x1="218" y1="210" x2="218" y2="210"/>
  <line style="fill: none; fill-opacity:0; stroke-width: 0.02; stroke: #000000" x1="230" y1="178" x2="280" y2="152"/>
  <line style="fill: none; fill-opacity:0; stroke-width: 0.02; stroke: #000000" x1="284" y1="98" x2="230" y2="72"/>
  <line style="fill: none; fill-opacity:0; stroke-width: 0.02; stroke: #000000" x1="284" y1="138" x2="284" y2="112"/>
  <text font-size="12.7998" style="fill: #000000;text-anchor:start;font-family:sans-serif;font-style:normal;font-weight:normal" x="214" y="150">
    <tspan x="214" y="150">010</tspan>
  </text>
  <line style="fill: none; fill-opacity:0; stroke-width: 0.02; stroke: #000000" x1="226" y1="178" x2="226" y2="152"/>
  <text font-size="12.8" style="fill: #000000;text-anchor:start;font-family:sans-serif;font-style:normal;font-weight:normal" x="156" y="110">
    <tspan x="156" y="110">011</tspan>
  </text>
  <text font-size="12.8" style="fill: #000000;text-anchor:start;font-family:sans-serif;font-style:normal;font-weight:normal" x="272" y="110">
    <tspan x="272" y="110">110</tspan>
  </text>
  <text font-size="12.7998" style="fill: #000000;text-anchor:start;font-family:sans-serif;font-style:normal;font-weight:normal" x="214" y="110">
    <tspan x="214" y="110">101</tspan>
  </text>
  <line style="fill: none; fill-opacity:0; stroke-width: 0.02; stroke: #000000" x1="168" y1="138" x2="168" y2="112"/>
  <line style="fill: none; fill-opacity:0; stroke-width: 0.02; stroke: #000000" x1="172" y1="138" x2="224" y2="112"/>
  <line style="fill: none; fill-opacity:0; stroke-width: 0.02; stroke: #000000" x1="224" y1="138" x2="172" y2="112"/>
  <line style="fill: none; fill-opacity:0; stroke-width: 0.02; stroke: #000000" x1="228" y1="138" x2="280" y2="112"/>
  <line style="fill: none; fill-opacity:0; stroke-width: 0.02; stroke: #000000" x1="280" y1="138" x2="228" y2="112"/>
  <text font-size="12.7998" style="fill: #000000;text-anchor:start;font-family:sans-serif;font-style:normal;font-weight:normal" x="214" y="70">
    <tspan x="214" y="70">111</tspan>
  </text>
</svg>
